<svg width="25" height="25" viewBox="0 0 25 25" fill="none" xmlns="http://www.w3.org/2000/svg">
<path d="M22.3084 23.9143C19.5941 26.6286 12.6428 24.0782 6.78232 18.2177C0.921839 12.3572 -1.62862 5.40594 1.0857 2.6916L2.87288 0.904421C4.10666 -0.329367 6.13964 -0.296753 7.41366 0.977266L10.1818 3.74544C11.4559 5.01946 11.4885 7.05244 10.2547 8.28623L9.87082 8.6701C9.20468 9.33624 9.13951 10.4109 9.75848 11.1609C10.3555 11.8844 10.9992 12.6051 11.6971 13.3029C12.3949 14.0008 13.1156 14.6445 13.8391 15.2415C14.5891 15.8605 15.6638 15.7953 16.3299 15.1292L16.7138 14.7453C17.9476 13.5115 19.9805 13.5441 21.2546 14.8182L24.0227 17.5863C25.2968 18.8604 25.3294 20.8933 24.0956 22.1271L22.3084 23.9143Z" fill="white"/>
</svg>
