<svg width="27" height="27" viewBox="0 0 27 27" fill="none" xmlns="http://www.w3.org/2000/svg">
<path d="M-6.55671e-07 11C-6.3153e-07 11.5523 0.447715 12 0.999999 12C1.55228 12 2 11.5523 2 11L-6.55671e-07 11ZM2 16C2 15.4477 1.55228 15 1 15C0.447715 15 -4.61255e-07 15.4477 -4.37114e-07 16L2 16ZM6 2L21 2L21 -8.74228e-07L6 -2.18557e-07L6 2ZM25 6L25 21L27 21L27 6L25 6ZM21 25L6 25L6 27L21 27L21 25ZM2 11C2 10.9971 2 10.9941 2 10.9912C2 10.9883 2 10.9853 2 10.9824C2 10.9795 2 10.9765 2 10.9736C2 10.9707 2 10.9677 2 10.9648C2 10.9618 2 10.9589 2 10.956C2 10.953 2 10.9501 2 10.9471C2 10.9442 2 10.9412 2 10.9383C2 10.9353 2 10.9324 2 10.9294C2 10.9265 2 10.9235 2 10.9206C2 10.9176 2 10.9147 2 10.9117C2 10.9088 2 10.9058 2 10.9029C2 10.8999 2 10.8969 2 10.894C2 10.891 2 10.8881 2 10.8851C2 10.8821 2 10.8792 2 10.8762C2 10.8732 2 10.8703 2 10.8673C2 10.8644 2 10.8614 2 10.8584C2 10.8554 2 10.8525 2 10.8495C2 10.8465 2 10.8436 2 10.8406C2 10.8376 2 10.8346 2 10.8317C2 10.8287 2 10.8257 2 10.8227C2 10.8198 2 10.8168 2 10.8138C2 10.8108 2 10.8078 2 10.8048C2 10.8019 2 10.7989 2 10.7959C2 10.7929 2 10.7899 2 10.7869C2 10.784 2 10.781 2 10.778C2 10.775 2 10.772 2 10.769C2 10.766 2 10.763 2 10.76C2 10.757 2 10.754 2 10.751C2 10.748 2 10.745 2 10.742C2 10.739 2 10.736 2 10.733C2 10.73 2 10.727 2 10.724C2 10.721 2 10.718 2 10.715C2 10.712 2 10.709 2 10.706C2 10.703 2 10.7 2 10.697C2 10.694 2 10.691 2 10.6879C2 10.6849 2 10.6819 2 10.6789C2 10.6759 2 10.6729 2 10.6699C2 10.6668 2 10.6638 2 10.6608C2 10.6578 2 10.6548 2 10.6517C2 10.6487 2 10.6457 2 10.6427C2 10.6397 2 10.6366 2 10.6336C2 10.6306 2 10.6275 2 10.6245C2 10.6215 2 10.6185 2 10.6154C2 10.6124 2 10.6094 2 10.6063C2 10.6033 2 10.6003 2 10.5972C2 10.5942 2 10.5912 2 10.5881C2 10.5851 2 10.5821 2 10.579C2 10.576 2 10.5729 2 10.5699C2 10.5669 2 10.5638 2 10.5608C2 10.5577 2 10.5547 2 10.5517C2 10.5486 2 10.5456 2 10.5425C2 10.5395 2 10.5364 2 10.5334C2 10.5303 2 10.5273 2 10.5242C2 10.5212 2 10.5181 2 10.5151C2 10.512 2 10.509 2 10.5059C2 10.5028 2 10.4998 2 10.4967C2 10.4937 2 10.4906 2 10.4876C2 10.4845 2 10.4814 2 10.4784C2 10.4753 2 10.4723 2 10.4692C2 10.4661 2 10.4631 2 10.46C2 10.4569 2 10.4539 2 10.4508C2 10.4477 2 10.4447 2 10.4416C2 10.4385 2 10.4354 2 10.4324C2 10.4293 2 10.4262 2 10.4232C2 10.4201 2 10.417 2 10.4139C2 10.4109 2 10.4078 2 10.4047C2 10.4016 2 10.3985 2 10.3955C2 10.3924 2 10.3893 2 10.3862C2 10.3831 2 10.3801 2 10.377C2 10.3739 2 10.3708 2 10.3677C2 10.3646 2 10.3616 2 10.3585C2 10.3554 2 10.3523 2 10.3492C2 10.3461 2 10.343 2 10.3399C2 10.3368 2 10.3337 2 10.3306C2 10.3276 2 10.3245 2 10.3214C2 10.3183 2 10.3152 2 10.3121C2 10.309 2 10.3059 2 10.3028C2 10.2997 2 10.2966 2 10.2935C2 10.2904 2 10.2873 2 10.2842C2 10.2811 2 10.278 2 10.2749C2 10.2718 2 10.2686 2 10.2655C2 10.2624 2 10.2593 2 10.2562C2 10.2531 2 10.25 2 10.2469C2 10.2438 2 10.2407 2 10.2376C2 10.2344 2 10.2313 2 10.2282C2 10.2251 2 10.222 2 10.2189C2 10.2157 2 10.2126 2 10.2095C2 10.2064 2 10.2033 2 10.2002C2 10.197 2 10.1939 2 10.1908C2 10.1877 2 10.1845 2 10.1814C2 10.1783 2 10.1752 2 10.172C2 10.1689 2 10.1658 2 10.1627C2 10.1595 2 10.1564 2 10.1533C2 10.1502 2 10.147 2 10.1439C2 10.1408 2 10.1376 2 10.1345C2 10.1314 2 10.1282 2 10.1251C2 10.122 2 10.1188 2 10.1157C2 10.1126 2 10.1094 2 10.1063C2 10.1031 2 10.1 2 10.0969C2 10.0937 2 10.0906 2 10.0874C2 10.0843 2 10.0812 2 10.078C2 10.0749 2 10.0717 2 10.0686C2 10.0654 2 10.0623 2 10.0591C2 10.056 2 10.0528 2 10.0497C2 10.0465 2 10.0434 2 10.0402C2 10.0371 2 10.0339 2 10.0308C2 10.0276 2 10.0245 2 10.0213C2 10.0182 2 10.015 2 10.0119C2 10.0087 2 10.0056 2 10.0024C2 9.99924 2 9.99608 2 9.99292C2 9.98976 2 9.9866 2 9.98344C2 9.98028 2 9.97712 2 9.97396C2 9.97079 2 9.96763 2 9.96447C2 9.9613 2 9.95814 2 9.95497C2 9.95181 2 9.94864 2 9.94547C2 9.9423 2 9.93914 2 9.93597C2 9.9328 2 9.92963 2 9.92646C2 9.92329 2 9.92011 2 9.91694C2 9.91377 2 9.9106 2 9.90742C2 9.90425 2 9.90107 2 9.8979C2 9.89472 2 9.89154 2 9.88837C2 9.88519 2 9.88201 2 9.87883C2 9.87565 2 9.87247 2 9.86929C2 9.86611 2 9.86293 2 9.85975C2 9.85657 2 9.85338 2 9.8502C2 9.84702 2 9.84383 2 9.84065C2 9.83746 2 9.83428 2 9.83109C2 9.8279 2 9.82471 2 9.82153C2 9.81834 2 9.81515 2 9.81196C2 9.80877 2 9.80558 2 9.80238C2 9.79919 2 9.796 2 9.79281C2 9.78961 2 9.78642 2 9.78323C2 9.78003 2 9.77684 2 9.77364C2 9.77044 2 9.76725 2 9.76405C2 9.76085 2 9.75765 2 9.75445C2 9.75125 2 9.74805 2 9.74485C2 9.74165 2 9.73845 2 9.73525C2 9.73204 2 9.72884 2 9.72564C2 9.72243 2 9.71923 2 9.71602C2 9.71282 2 9.70961 2 9.70641C2 9.7032 2 9.69999 2 9.69678C2 9.69357 2 9.69037 2 9.68716C2 9.68395 2 9.68074 2 9.67752C2 9.67431 2 9.6711 2 9.66789C2 9.66468 2 9.66146 2 9.65825C2 9.65503 2 9.65182 2 9.6486C2 9.64539 2 9.64217 2 9.63895C2 9.63574 2 9.63252 2 9.6293C2 9.62608 2 9.62286 2 9.61964C2 9.61642 2 9.6132 2 9.60998C2 9.60676 2 9.60354 2 9.60032C2 9.59709 2 9.59387 2 9.59064C2 9.58742 2 9.5842 2 9.58097C2 9.57774 2 9.57452 2 9.57129C2 9.56806 2 9.56484 2 9.56161C2 9.55838 2 9.55515 2 9.55192C2 9.54869 2 9.54546 2 9.54223C2 9.539 2 9.53577 2 9.53253C2 9.5293 2 9.52607 2 9.52284C2 9.5196 2 9.51637 2 9.51313C2 9.5099 2 9.50666 2 9.50342C2 9.50019 2 9.49695 2 9.49371C2 9.49048 2 9.48724 2 9.484C2 9.48076 2 9.47752 2 9.47428C2 9.47104 2 9.4678 2 9.46455C2 9.46131 2 9.45807 2 9.45483C2 9.45158 2 9.44834 2 9.4451C2 9.44185 2 9.43861 2 9.43536C2 9.43212 2 9.42887 2 9.42562C2 9.42238 2 9.41913 2 9.41588C2 9.41263 2 9.40938 2 9.40613C2 9.40288 2 9.39963 2 9.39638C2 9.39313 2 9.38988 2 9.38663C2 9.38338 2 9.38012 2 9.37687C2 9.37362 2 9.37036 2 9.36711C2 9.36385 2 9.3606 2 9.35734C2 9.35409 2 9.35083 2 9.34757C2 9.34432 2 9.34106 2 9.3378C2 9.33454 2 9.33128 2 9.32802C2 9.32476 2 9.3215 2 9.31824C2 9.31498 2 9.31172 2 9.30846C2 9.3052 2 9.30194 2 9.29867C2 9.29541 2 9.29215 2 9.28888C2 9.28562 2 9.28235 2 9.27909C2 9.27582 2 9.27256 2 9.26929C2 9.26602 2 9.26276 2 9.25949C2 9.25622 2 9.25295 2 9.24968C2 9.24641 2 9.24314 2 9.23987C2 9.2366 2 9.23333 2 9.23006C2 9.22679 2 9.22352 2 9.22025C2 9.21697 2 9.2137 2 9.21043C2 9.20715 2 9.20388 2 9.20061C2 9.19733 2 9.19406 2 9.19078C2 9.1875 2 9.18423 2 9.18095C2 9.17767 2 9.1744 2 9.17112C2 9.16784 2 9.16456 2 9.16128C2 9.158 2 9.15472 2 9.15144C2 9.14816 2 9.14488 2 9.1416C2 9.13832 2 9.13504 2 9.13176C2 9.12848 2 9.12519 2 9.12191C2 9.11863 2 9.11534 2 9.11206C2 9.10877 2 9.10549 2 9.1022C2 9.09892 2 9.09563 2 9.09234C2 9.08906 2 9.08577 2 9.08248C2 9.0792 2 9.07591 2 9.07262C2 9.06933 2 9.06604 2 9.06275C2 9.05946 2 9.05617 2 9.05288C2 9.04959 2 9.0463 2 9.04301C2 9.03972 2 9.03642 2 9.03313C2 9.02984 2 9.02655 2 9.02325C2 9.01996 2 9.01666 2 9.01337C2 9.01007 2 9.00678 2 9.00348C2 9.00019 2 8.99689 2 8.9936C2 8.9903 2 8.987 2 8.9837C2 8.98041 2 8.97711 2 8.97381C2 8.97051 2 8.96721 2 8.96391C2 8.96061 2 8.95731 2 8.95401C2 8.95071 2 8.94741 2 8.94411C2 8.94081 2 8.93751 2 8.9342C2 8.9309 2 8.9276 2 8.9243C2 8.92099 2 8.91769 2 8.91438C2 8.91108 2 8.90778 2 8.90447C2 8.90116 2 8.89786 2 8.89455C2 8.89125 2 8.88794 2 8.88463C2 8.88133 2 8.87802 2 8.87471C2 8.8714 2 8.8681 2 8.86479C2 8.86148 2 8.85817 2 8.85486C2 8.85155 2 8.84824 2 8.84493C2 8.84162 2 8.83831 2 8.835C2 8.83169 2 8.82837 2 8.82506C2 8.82175 2 8.81844 2 8.81512C2 8.81181 2 8.8085 2 8.80518C2 8.80187 2 8.79856 2 8.79524C2 8.79193 2 8.78861 2 8.78529C2 8.78198 2 8.77866 2 8.77535C2 8.77203 2 8.76871 2 8.7654C2 8.76208 2 8.75876 2 8.75544C2 8.75213 2 8.74881 2 8.74549C2 8.74217 2 8.73885 2 8.73553C2 8.73221 2 8.72889 2 8.72557C2 8.72225 2 8.71893 2 8.71561C2 8.71229 2 8.70897 2 8.70564C2 8.70232 2 8.699 2 8.69568C2 8.69235 2 8.68903 2 8.68571C2 8.68238 2 8.67906 2 8.67574C2 8.67241 2 8.66909 2 8.66576C2 8.66244 2 8.65911 2 8.65579C2 8.65246 2 8.64913 2 8.64581C2 8.64248 2 8.63915 2 8.63583C2 8.6325 2 8.62917 2 8.62584C2 8.62252 2 8.61919 2 8.61586C2 8.61253 2 8.6092 2 8.60587C2 8.60254 2 8.59921 2 8.59588C2 8.59255 2 8.58922 2 8.58589C2 8.58256 2 8.57923 2 8.5759C2 8.57257 2 8.56924 2 8.5659C2 8.56257 2 8.55924 2 8.55591C2 8.55257 2 8.54924 2 8.54591C2 8.54257 2 8.53924 2 8.53591C2 8.53257 2 8.52924 2 8.5259C2 8.52257 2 8.51923 2 8.5159C2 8.51256 2 8.50923 2 8.50589C2 8.50256 2 8.49922 2 8.49588C2 8.49255 2 8.48921 2 8.48587C2 8.48253 2 8.4792 2 8.47586C2 8.47252 2 8.46918 2 8.46585C2 8.46251 2 8.45917 2 8.45583C2 8.45249 2 8.44915 2 8.44581C2 8.44247 2 8.43913 2 8.43579C2 8.43245 2 8.42911 2 8.42577C2 8.42243 2 8.41909 2 8.41575C2 8.4124 2 8.40906 2 8.40572C2 8.40238 2 8.39904 2 8.39569C2 8.39235 2 8.38901 2 8.38567C2 8.38232 2 8.37898 2 8.37564C2 8.37229 2 8.36895 2 8.3656C2 8.36226 2 8.35892 2 8.35557C2 8.35223 2 8.34888 2 8.34554C2 8.34219 2 8.33885 2 8.3355C2 8.33215 2 8.32881 2 8.32546C2 8.32212 2 8.31877 2 8.31542C2 8.31208 2 8.30873 2 8.30538C2 8.30203 2 8.29869 2 8.29534C2 8.29199 2 8.28864 2 8.2853C2 8.28195 2 8.2786 2 8.27525C2 8.2719 2 8.26855 2 8.2652C2 8.26185 2 8.25851 2 8.25516C2 8.25181 2 8.24846 2 8.24511C2 8.24176 2 8.23841 2 8.23506C2 8.2317 2 8.22835 2 8.225C2 8.22165 2 8.2183 2 8.21495C2 8.2116 2 8.20825 2 8.2049C2 8.20154 2 8.19819 2 8.19484C2 8.19149 2 8.18813 2 8.18478C2 8.18143 2 8.17808 2 8.17472C2 8.17137 2 8.16802 2 8.16466C2 8.16131 2 8.15796 2 8.1546C2 8.15125 2 8.1479 2 8.14454C2 8.14119 2 8.13783 2 8.13448C2 8.13112 2 8.12777 2 8.12441C2 8.12106 2 8.1177 2 8.11435C2 8.11099 2 8.10764 2 8.10428C2 8.10093 2 8.09757 2 8.09421C2 8.09086 2 8.0875 2 8.08415C2 8.08079 2 8.07743 2 8.07408C2 8.07072 2 8.06736 2 8.06401C2 8.06065 2 8.05729 2 8.05393C2 8.05058 2 8.04722 2 8.04386C2 8.0405 2 8.03715 2 8.03379C2 8.03043 2 8.02707 2 8.02371C2 8.02036 2 8.017 2 8.01364C2 8.01028 2 8.00692 2 8.00356C2 8.0002 2 7.99685 2 7.99349C2 7.99013 2 7.98677 2 7.98341C2 7.98005 2 7.97669 2 7.97333C2 7.96997 2 7.96661 2 7.96325C2 7.95989 2 7.95653 2 7.95317C2 7.94981 2 7.94645 2 7.94309C2 7.93973 2 7.93637 2 7.93301C2 7.92965 2 7.92629 2 7.92293C2 7.91957 2 7.9162 2 7.91284C2 7.90948 2 7.90612 2 7.90276C2 7.8994 2 7.89604 2 7.89268C2 7.88931 2 7.88595 2 7.88259C2 7.87923 2 7.87587 2 7.87251C2 7.86914 2 7.86578 2 7.86242C2 7.85906 2 7.8557 2 7.85233C2 7.84897 2 7.84561 2 7.84225C2 7.83888 2 7.83552 2 7.83216C2 7.8288 2 7.82543 2 7.82207C2 7.81871 2 7.81535 2 7.81198C2 7.80862 2 7.80526 2 7.80189C2 7.79853 2 7.79517 2 7.7918C2 7.78844 2 7.78508 2 7.78171C2 7.77835 2 7.77499 2 7.77162C2 7.76826 2 7.7649 2 7.76153C2 7.75817 2 7.75481 2 7.75144C2 7.74808 2 7.74472 2 7.74135C2 7.73799 2 7.73462 2 7.73126C2 7.7279 2 7.72453 2 7.72117C2 7.7178 2 7.71444 2 7.71108C2 7.70771 2 7.70435 2 7.70098C2 7.69762 2 7.69426 2 7.69089C2 7.68753 2 7.68416 2 7.6808C2 7.67744 2 7.67407 2 7.67071C2 7.66734 2 7.66398 2 7.66061C2 7.65725 2 7.65388 2 7.65052C2 7.64716 2 7.64379 2 7.64043C2 7.63706 2 7.6337 2 7.63033C2 7.62697 2 7.6236 2 7.62024C2 7.61688 2 7.61351 2 7.61015C2 7.60678 2 7.60342 2 7.60005C2 7.59669 2 7.59332 2 7.58996C2 7.5866 2 7.58323 2 7.57987C2 7.5765 2 7.57314 2 7.56977C2 7.56641 2 7.56304 2 7.55968C2 7.55632 2 7.55295 2 7.54959C2 7.54622 2 7.54286 2 7.53949C2 7.53613 2 7.53276 2 7.5294C2 7.52604 2 7.52267 2 7.51931C2 7.51594 2 7.51258 2 7.50922C2 7.50585 2 7.50249 2 7.49912C2 7.49576 2 7.49239 2 7.48903C2 7.48567 2 7.4823 2 7.47894C2 7.47557 2 7.47221 2 7.46885C2 7.46548 2 7.46212 2 7.45875C2 7.45539 2 7.45203 2 7.44866C2 7.4453 2 7.44194 2 7.43857C2 7.43521 2 7.43185 2 7.42848C2 7.42512 2 7.42175 2 7.41839C2 7.41503 2 7.41166 2 7.4083C2 7.40494 2 7.40157 2 7.39821C2 7.39485 2 7.39149 2 7.38812C2 7.38476 2 7.3814 2 7.37803C2 7.37467 2 7.37131 2 7.36795C2 7.36458 2 7.36122 2 7.35786C2 7.3545 2 7.35113 2 7.34777C2 7.34441 2 7.34105 2 7.33768C2 7.33432 2 7.33096 2 7.3276C2 7.32424 2 7.32087 2 7.31751C2 7.31415 2 7.31079 2 7.30743C2 7.30407 2 7.3007 2 7.29734C2 7.29398 2 7.29062 2 7.28726C2 7.2839 2 7.28054 2 7.27718C2 7.27381 2 7.27045 2 7.26709C2 7.26373 2 7.26037 2 7.25701C2 7.25365 2 7.25029 2 7.24693C2 7.24357 2 7.24021 2 7.23685C2 7.23349 2 7.23013 2 7.22677C2 7.22341 2 7.22005 2 7.21669C2 7.21333 2 7.20997 2 7.20661C2 7.20325 2 7.1999 2 7.19654C2 7.19318 2 7.18982 2 7.18646C2 7.1831 2 7.17974 2 7.17638C2 7.17303 2 7.16967 2 7.16631C2 7.16295 2 7.15959 2 7.15624C2 7.15288 2 7.14952 2 7.14616C2 7.14281 2 7.13945 2 7.13609C2 7.13273 2 7.12938 2 7.12602C2 7.12266 2 7.11931 2 7.11595C2 7.11259 2 7.10924 2 7.10588C2 7.10252 2 7.09917 2 7.09581C2 7.09246 2 7.0891 2 7.08575C2 7.08239 2 7.07904 2 7.07568C2 7.07233 2 7.06897 2 7.06562C2 7.06226 2 7.05891 2 7.05555C2 7.0522 2 7.04884 2 7.04549C2 7.04214 2 7.03878 2 7.03543C2 7.03207 2 7.02872 2 7.02537C2 7.02201 2 7.01866 2 7.01531C2 7.01196 2 7.0086 2 7.00525C2 7.0019 2 6.99855 2 6.99519C2 6.99184 2 6.98849 2 6.98514C2 6.98179 2 6.97844 2 6.97508C2 6.97173 2 6.96838 2 6.96503C2 6.96168 2 6.95833 2 6.95498C2 6.95163 2 6.94828 2 6.94493C2 6.94158 2 6.93823 2 6.93488C2 6.93153 2 6.92818 2 6.92483C2 6.92149 2 6.91814 2 6.91479C2 6.91144 2 6.90809 2 6.90474C2 6.9014 2 6.89805 2 6.8947C2 6.89135 2 6.88801 2 6.88466C2 6.88131 2 6.87797 2 6.87462C2 6.87127 2 6.86793 2 6.86458C2 6.86123 2 6.85789 2 6.85454C2 6.8512 2 6.84785 2 6.84451C2 6.84116 2 6.83782 2 6.83447C2 6.83113 2 6.82779 2 6.82444C2 6.8211 2 6.81775 2 6.81441C2 6.81107 2 6.80772 2 6.80438C2 6.80104 2 6.7977 2 6.79435C2 6.79101 2 6.78767 2 6.78433C2 6.78099 2 6.77765 2 6.7743C2 6.77096 2 6.76762 2 6.76428C2 6.76094 2 6.7576 2 6.75426C2 6.75092 2 6.74758 2 6.74424C2 6.7409 2 6.73756 2 6.73423C2 6.73089 2 6.72755 2 6.72421C2 6.72087 2 6.71753 2 6.7142C2 6.71086 2 6.70752 2 6.70419C2 6.70085 2 6.69751 2 6.69418C2 6.69084 2 6.6875 2 6.68417C2 6.68083 2 6.6775 2 6.67416C2 6.67083 2 6.66749 2 6.66416C2 6.66082 2 6.65749 2 6.65416C2 6.65082 2 6.64749 2 6.64416C2 6.64082 2 6.63749 2 6.63416C2 6.63082 2 6.62749 2 6.62416C2 6.62083 2 6.6175 2 6.61417C2 6.61084 2 6.6075 2 6.60417C2 6.60084 2 6.59751 2 6.59418C2 6.59085 2 6.58753 2 6.5842C2 6.58087 2 6.57754 2 6.57421C2 6.57088 2 6.56755 2 6.56423C2 6.5609 2 6.55757 2 6.55425C2 6.55092 2 6.54759 2 6.54427C2 6.54094 2 6.53761 2 6.53429C2 6.53096 2 6.52764 2 6.52431C2 6.52099 2 6.51767 2 6.51434C2 6.51102 2 6.50769 2 6.50437C2 6.50105 2 6.49773 2 6.4944C2 6.49108 2 6.48776 2 6.48444C2 6.48112 2 6.47779 2 6.47447C2 6.47115 2 6.46783 2 6.46451C2 6.46119 2 6.45787 2 6.45455C2 6.45124 2 6.44792 2 6.4446C2 6.44128 2 6.43796 2 6.43464C2 6.43133 2 6.42801 2 6.42469C2 6.42138 2 6.41806 2 6.41474C2 6.41143 2 6.40811 2 6.4048C2 6.40148 2 6.39817 2 6.39485C2 6.39154 2 6.38822 2 6.38491C2 6.3816 2 6.37828 2 6.37497C2 6.37166 2 6.36835 2 6.36504C2 6.36172 2 6.35841 2 6.3551C2 6.35179 2 6.34848 2 6.34517C2 6.34186 2 6.33855 2 6.33524C2 6.33193 2 6.32862 2 6.32532C2 6.32201 2 6.3187 2 6.31539C2 6.31208 2 6.30878 2 6.30547C2 6.30217 2 6.29886 2 6.29555C2 6.29225 2 6.28894 2 6.28564C2 6.28233 2 6.27903 2 6.27573C2 6.27242 2 6.26912 2 6.26582C2 6.26251 2 6.25921 2 6.25591C2 6.25261 2 6.24931 2 6.246C2 6.2427 2 6.2394 2 6.2361C2 6.2328 2 6.2295 2 6.2262C2 6.22291 2 6.21961 2 6.21631C2 6.21301 2 6.20971 2 6.20642C2 6.20312 2 6.19982 2 6.19653C2 6.19323 2 6.18993 2 6.18664C2 6.18334 2 6.18005 2 6.17676C2 6.17346 2 6.17017 2 6.16687C2 6.16358 2 6.16029 2 6.157C2 6.1537 2 6.15041 2 6.14712C2 6.14383 2 6.14054 2 6.13725C2 6.13396 2 6.13067 2 6.12738C2 6.12409 2 6.1208 2 6.11752C2 6.11423 2 6.11094 2 6.10765C2 6.10437 2 6.10108 2 6.09779C2 6.09451 2 6.09122 2 6.08794C2 6.08465 2 6.08137 2 6.07808C2 6.0748 2 6.07152 2 6.06823C2 6.06495 2 6.06167 2 6.05839C2 6.05511 2 6.05182 2 6.04854C2 6.04526 2 6.04198 2 6.0387C2 6.03542 2 6.03214 2 6.02887C2 6.02559 2 6.02231 2 6.01903C2 6.01575 2 6.01248 2 6.0092C2 6.00593 2 6.00265 2 5.99937L-8.74255e-07 5.99937C-8.74112e-07 6.00265 -8.73969e-07 6.00593 -8.73826e-07 6.0092C-8.73682e-07 6.01248 -8.73539e-07 6.01575 -8.73396e-07 6.01903C-8.73253e-07 6.02231 -8.73109e-07 6.02559 -8.72966e-07 6.02887C-8.72823e-07 6.03214 -8.72679e-07 6.03542 -8.72536e-07 6.0387C-8.72393e-07 6.04198 -8.72249e-07 6.04526 -8.72106e-07 6.04854C-8.71962e-07 6.05182 -8.71819e-07 6.05511 -8.71676e-07 6.05839C-8.71532e-07 6.06167 -8.71389e-07 6.06495 -8.71245e-07 6.06823C-8.71102e-07 6.07152 -8.70958e-07 6.0748 -8.70815e-07 6.07808C-8.70671e-07 6.08137 -8.70528e-07 6.08465 -8.70384e-07 6.08794C-8.7024e-07 6.09122 -8.70097e-07 6.09451 -8.69953e-07 6.09779C-8.69809e-07 6.10108 -8.69666e-07 6.10437 -8.69522e-07 6.10765C-8.69378e-07 6.11094 -8.69235e-07 6.11423 -8.69091e-07 6.11752C-8.68947e-07 6.1208 -8.68804e-07 6.12409 -8.6866e-07 6.12738C-8.68516e-07 6.13067 -8.68372e-07 6.13396 -8.68228e-07 6.13725C-8.68085e-07 6.14054 -8.67941e-07 6.14383 -8.67797e-07 6.14712C-8.67653e-07 6.15041 -8.67509e-07 6.1537 -8.67365e-07 6.157C-8.67221e-07 6.16029 -8.67077e-07 6.16358 -8.66933e-07 6.16688C-8.66789e-07 6.17017 -8.66646e-07 6.17346 -8.66502e-07 6.17676C-8.66358e-07 6.18005 -8.66214e-07 6.18334 -8.66069e-07 6.18664C-8.65925e-07 6.18994 -8.65781e-07 6.19323 -8.65637e-07 6.19653C-8.65493e-07 6.19982 -8.65349e-07 6.20312 -8.65205e-07 6.20642C-8.65061e-07 6.20971 -8.64917e-07 6.21301 -8.64773e-07 6.21631C-8.64628e-07 6.21961 -8.64484e-07 6.22291 -8.6434e-07 6.2262C-8.64196e-07 6.2295 -8.64052e-07 6.2328 -8.63907e-07 6.2361C-8.63763e-07 6.2394 -8.63619e-07 6.2427 -8.63475e-07 6.246C-8.6333e-07 6.24931 -8.63186e-07 6.25261 -8.63042e-07 6.25591C-8.62897e-07 6.25921 -8.62753e-07 6.26251 -8.62609e-07 6.26582C-8.62464e-07 6.26912 -8.6232e-07 6.27242 -8.62175e-07 6.27573C-8.62031e-07 6.27903 -8.61887e-07 6.28233 -8.61742e-07 6.28564C-8.61598e-07 6.28894 -8.61453e-07 6.29225 -8.61309e-07 6.29555C-8.61164e-07 6.29886 -8.6102e-07 6.30217 -8.60875e-07 6.30547C-8.60731e-07 6.30878 -8.60586e-07 6.31208 -8.60442e-07 6.31539C-8.60297e-07 6.3187 -8.60152e-07 6.32201 -8.60008e-07 6.32532C-8.59863e-07 6.32862 -8.59719e-07 6.33193 -8.59574e-07 6.33524C-8.59429e-07 6.33855 -8.59285e-07 6.34186 -8.5914e-07 6.34517C-8.58995e-07 6.34848 -8.58851e-07 6.35179 -8.58706e-07 6.3551C-8.58561e-07 6.35841 -8.58416e-07 6.36172 -8.58272e-07 6.36504C-8.58127e-07 6.36835 -8.57982e-07 6.37166 -8.57837e-07 6.37497C-8.57692e-07 6.37828 -8.57548e-07 6.3816 -8.57403e-07 6.38491C-8.57258e-07 6.38822 -8.57113e-07 6.39154 -8.56968e-07 6.39485C-8.56823e-07 6.39817 -8.56678e-07 6.40148 -8.56534e-07 6.4048C-8.56389e-07 6.40811 -8.56244e-07 6.41143 -8.56099e-07 6.41474C-8.55954e-07 6.41806 -8.55809e-07 6.42138 -8.55664e-07 6.42469C-8.55519e-07 6.42801 -8.55374e-07 6.43133 -8.55229e-07 6.43464C-8.55084e-07 6.43796 -8.54939e-07 6.44128 -8.54794e-07 6.4446C-8.54649e-07 6.44792 -8.54504e-07 6.45124 -8.54359e-07 6.45455C-8.54213e-07 6.45787 -8.54068e-07 6.46119 -8.53923e-07 6.46451C-8.53778e-07 6.46783 -8.53633e-07 6.47115 -8.53488e-07 6.47447C-8.53343e-07 6.4778 -8.53198e-07 6.48112 -8.53052e-07 6.48444C-8.52907e-07 6.48776 -8.52762e-07 6.49108 -8.52617e-07 6.4944C-8.52471e-07 6.49773 -8.52326e-07 6.50105 -8.52181e-07 6.50437C-8.52036e-07 6.50769 -8.5189e-07 6.51102 -8.51745e-07 6.51434C-8.516e-07 6.51767 -8.51455e-07 6.52099 -8.51309e-07 6.52431C-8.51164e-07 6.52764 -8.51019e-07 6.53096 -8.50873e-07 6.53429C-8.50728e-07 6.53761 -8.50583e-07 6.54094 -8.50437e-07 6.54427C-8.50292e-07 6.54759 -8.50146e-07 6.55092 -8.50001e-07 6.55425C-8.49855e-07 6.55757 -8.4971e-07 6.5609 -8.49565e-07 6.56423C-8.49419e-07 6.56755 -8.49274e-07 6.57088 -8.49128e-07 6.57421C-8.48983e-07 6.57754 -8.48837e-07 6.58087 -8.48692e-07 6.5842C-8.48546e-07 6.58753 -8.48401e-07 6.59086 -8.48255e-07 6.59418C-8.4811e-07 6.59751 -8.47964e-07 6.60084 -8.47818e-07 6.60417C-8.47673e-07 6.60751 -8.47527e-07 6.61084 -8.47382e-07 6.61417C-8.47236e-07 6.6175 -8.4709e-07 6.62083 -8.46945e-07 6.62416C-8.46799e-07 6.62749 -8.46654e-07 6.63082 -8.46508e-07 6.63416C-8.46362e-07 6.63749 -8.46217e-07 6.64082 -8.46071e-07 6.64416C-8.45925e-07 6.64749 -8.45779e-07 6.65082 -8.45634e-07 6.65416C-8.45488e-07 6.65749 -8.45342e-07 6.66082 -8.45197e-07 6.66416C-8.45051e-07 6.66749 -8.44905e-07 6.67083 -8.44759e-07 6.67416C-8.44613e-07 6.6775 -8.44468e-07 6.68083 -8.44322e-07 6.68417C-8.44176e-07 6.6875 -8.4403e-07 6.69084 -8.43884e-07 6.69418C-8.43739e-07 6.69751 -8.43593e-07 6.70085 -8.43447e-07 6.70419C-8.43301e-07 6.70752 -8.43155e-07 6.71086 -8.43009e-07 6.7142C-8.42863e-07 6.71753 -8.42717e-07 6.72087 -8.42572e-07 6.72421C-8.42426e-07 6.72755 -8.4228e-07 6.73089 -8.42134e-07 6.73423C-8.41988e-07 6.73756 -8.41842e-07 6.7409 -8.41696e-07 6.74424C-8.4155e-07 6.74758 -8.41404e-07 6.75092 -8.41258e-07 6.75426C-8.41112e-07 6.7576 -8.40966e-07 6.76094 -8.4082e-07 6.76428C-8.40674e-07 6.76762 -8.40528e-07 6.77096 -8.40382e-07 6.7743C-8.40236e-07 6.77765 -8.4009e-07 6.78099 -8.39944e-07 6.78433C-8.39798e-07 6.78767 -8.39652e-07 6.79101 -8.39505e-07 6.79435C-8.39359e-07 6.7977 -8.39213e-07 6.80104 -8.39067e-07 6.80438C-8.38921e-07 6.80772 -8.38775e-07 6.81107 -8.38629e-07 6.81441C-8.38483e-07 6.81775 -8.38336e-07 6.8211 -8.3819e-07 6.82444C-8.38044e-07 6.82779 -8.37898e-07 6.83113 -8.37752e-07 6.83447C-8.37606e-07 6.83782 -8.37459e-07 6.84116 -8.37313e-07 6.84451C-8.37167e-07 6.84785 -8.37021e-07 6.8512 -8.36874e-07 6.85454C-8.36728e-07 6.85789 -8.36582e-07 6.86123 -8.36436e-07 6.86458C-8.36289e-07 6.86793 -8.36143e-07 6.87127 -8.35997e-07 6.87462C-8.35851e-07 6.87797 -8.35704e-07 6.88131 -8.35558e-07 6.88466C-8.35412e-07 6.88801 -8.35265e-07 6.89135 -8.35119e-07 6.8947C-8.34973e-07 6.89805 -8.34826e-07 6.9014 -8.3468e-07 6.90474C-8.34534e-07 6.90809 -8.34387e-07 6.91144 -8.34241e-07 6.91479C-8.34095e-07 6.91814 -8.33948e-07 6.92149 -8.33802e-07 6.92483C-8.33656e-07 6.92818 -8.33509e-07 6.93153 -8.33363e-07 6.93488C-8.33216e-07 6.93823 -8.3307e-07 6.94158 -8.32924e-07 6.94493C-8.32777e-07 6.94828 -8.32631e-07 6.95163 -8.32484e-07 6.95498C-8.32338e-07 6.95833 -8.32191e-07 6.96168 -8.32045e-07 6.96503C-8.31898e-07 6.96838 -8.31752e-07 6.97173 -8.31605e-07 6.97509C-8.31459e-07 6.97844 -8.31312e-07 6.98179 -8.31166e-07 6.98514C-8.31019e-07 6.98849 -8.30873e-07 6.99184 -8.30726e-07 6.99519C-8.3058e-07 6.99855 -8.30433e-07 7.0019 -8.30287e-07 7.00525C-8.3014e-07 7.0086 -8.29994e-07 7.01196 -8.29847e-07 7.01531C-8.29701e-07 7.01866 -8.29554e-07 7.02201 -8.29408e-07 7.02537C-8.29261e-07 7.02872 -8.29114e-07 7.03207 -8.28968e-07 7.03543C-8.28821e-07 7.03878 -8.28675e-07 7.04214 -8.28528e-07 7.04549C-8.28381e-07 7.04884 -8.28235e-07 7.0522 -8.28088e-07 7.05555C-8.27942e-07 7.05891 -8.27795e-07 7.06226 -8.27648e-07 7.06562C-8.27502e-07 7.06897 -8.27355e-07 7.07233 -8.27208e-07 7.07568C-8.27062e-07 7.07904 -8.26915e-07 7.08239 -8.26768e-07 7.08575C-8.26622e-07 7.0891 -8.26475e-07 7.09246 -8.26328e-07 7.09581C-8.26182e-07 7.09917 -8.26035e-07 7.10252 -8.25888e-07 7.10588C-8.25741e-07 7.10924 -8.25595e-07 7.11259 -8.25448e-07 7.11595C-8.25301e-07 7.11931 -8.25155e-07 7.12266 -8.25008e-07 7.12602C-8.24861e-07 7.12938 -8.24714e-07 7.13273 -8.24568e-07 7.13609C-8.24421e-07 7.13945 -8.24274e-07 7.14281 -8.24127e-07 7.14616C-8.23981e-07 7.14952 -8.23834e-07 7.15288 -8.23687e-07 7.15624C-8.2354e-07 7.15959 -8.23394e-07 7.16295 -8.23247e-07 7.16631C-8.231e-07 7.16967 -8.22953e-07 7.17303 -8.22806e-07 7.17638C-8.2266e-07 7.17974 -8.22513e-07 7.1831 -8.22366e-07 7.18646C-8.22219e-07 7.18982 -8.22072e-07 7.19318 -8.21926e-07 7.19654C-8.21779e-07 7.1999 -8.21632e-07 7.20325 -8.21485e-07 7.20661C-8.21338e-07 7.20997 -8.21191e-07 7.21333 -8.21044e-07 7.21669C-8.20898e-07 7.22005 -8.20751e-07 7.22341 -8.20604e-07 7.22677C-8.20457e-07 7.23013 -8.2031e-07 7.23349 -8.20163e-07 7.23685C-8.20016e-07 7.24021 -8.1987e-07 7.24357 -8.19723e-07 7.24693C-8.19576e-07 7.25029 -8.19429e-07 7.25365 -8.19282e-07 7.25701C-8.19135e-07 7.26037 -8.18988e-07 7.26373 -8.18841e-07 7.26709C-8.18694e-07 7.27045 -8.18548e-07 7.27381 -8.18401e-07 7.27718C-8.18254e-07 7.28054 -8.18107e-07 7.2839 -8.1796e-07 7.28726C-8.17813e-07 7.29062 -8.17666e-07 7.29398 -8.17519e-07 7.29734C-8.17372e-07 7.3007 -8.17225e-07 7.30407 -8.17078e-07 7.30743C-8.16931e-07 7.31079 -8.16784e-07 7.31415 -8.16637e-07 7.31751C-8.16491e-07 7.32087 -8.16344e-07 7.32424 -8.16197e-07 7.3276C-8.1605e-07 7.33096 -8.15903e-07 7.33432 -8.15756e-07 7.33768C-8.15609e-07 7.34105 -8.15462e-07 7.34441 -8.15315e-07 7.34777C-8.15168e-07 7.35113 -8.15021e-07 7.3545 -8.14874e-07 7.35786C-8.14727e-07 7.36122 -8.1458e-07 7.36458 -8.14433e-07 7.36795C-8.14286e-07 7.37131 -8.14139e-07 7.37467 -8.13992e-07 7.37803C-8.13845e-07 7.3814 -8.13698e-07 7.38476 -8.13551e-07 7.38812C-8.13404e-07 7.39149 -8.13257e-07 7.39485 -8.1311e-07 7.39821C-8.12963e-07 7.40158 -8.12816e-07 7.40494 -8.12669e-07 7.4083C-8.12522e-07 7.41166 -8.12375e-07 7.41503 -8.12228e-07 7.41839C-8.12081e-07 7.42175 -8.11934e-07 7.42512 -8.11787e-07 7.42848C-8.1164e-07 7.43185 -8.11493e-07 7.43521 -8.11346e-07 7.43857C-8.11199e-07 7.44194 -8.11052e-07 7.4453 -8.10905e-07 7.44866C-8.10758e-07 7.45203 -8.10611e-07 7.45539 -8.10464e-07 7.45875C-8.10317e-07 7.46212 -8.10169e-07 7.46548 -8.10022e-07 7.46885C-8.09875e-07 7.47221 -8.09728e-07 7.47557 -8.09581e-07 7.47894C-8.09434e-07 7.4823 -8.09287e-07 7.48567 -8.0914e-07 7.48903C-8.08993e-07 7.49239 -8.08846e-07 7.49576 -8.08699e-07 7.49912C-8.08552e-07 7.50249 -8.08405e-07 7.50585 -8.08258e-07 7.50922C-8.08111e-07 7.51258 -8.07964e-07 7.51594 -8.07817e-07 7.51931C-8.0767e-07 7.52267 -8.07523e-07 7.52604 -8.07376e-07 7.5294C-8.07228e-07 7.53277 -8.07081e-07 7.53613 -8.06934e-07 7.53949C-8.06787e-07 7.54286 -8.0664e-07 7.54622 -8.06493e-07 7.54959C-8.06346e-07 7.55295 -8.06199e-07 7.55632 -8.06052e-07 7.55968C-8.05905e-07 7.56304 -8.05758e-07 7.56641 -8.05611e-07 7.56977C-8.05464e-07 7.57314 -8.05317e-07 7.5765 -8.0517e-07 7.57987C-8.05023e-07 7.58323 -8.04875e-07 7.5866 -8.04728e-07 7.58996C-8.04581e-07 7.59332 -8.04434e-07 7.59669 -8.04287e-07 7.60005C-8.0414e-07 7.60342 -8.03993e-07 7.60678 -8.03846e-07 7.61015C-8.03699e-07 7.61351 -8.03552e-07 7.61688 -8.03405e-07 7.62024C-8.03258e-07 7.62361 -8.03111e-07 7.62697 -8.02964e-07 7.63033C-8.02817e-07 7.6337 -8.02669e-07 7.63706 -8.02522e-07 7.64043C-8.02375e-07 7.64379 -8.02228e-07 7.64716 -8.02081e-07 7.65052C-8.01934e-07 7.65388 -8.01787e-07 7.65725 -8.0164e-07 7.66061C-8.01493e-07 7.66398 -8.01346e-07 7.66734 -8.01199e-07 7.67071C-8.01052e-07 7.67407 -8.00905e-07 7.67744 -8.00758e-07 7.6808C-8.00611e-07 7.68416 -8.00464e-07 7.68753 -8.00317e-07 7.69089C-8.00169e-07 7.69426 -8.00022e-07 7.69762 -7.99875e-07 7.70098C-7.99728e-07 7.70435 -7.99581e-07 7.70771 -7.99434e-07 7.71108C-7.99287e-07 7.71444 -7.9914e-07 7.7178 -7.98993e-07 7.72117C-7.98846e-07 7.72453 -7.98699e-07 7.7279 -7.98552e-07 7.73126C-7.98405e-07 7.73462 -7.98258e-07 7.73799 -7.98111e-07 7.74135C-7.97964e-07 7.74472 -7.97817e-07 7.74808 -7.9767e-07 7.75144C-7.97523e-07 7.75481 -7.97376e-07 7.75817 -7.97229e-07 7.76153C-7.97082e-07 7.7649 -7.96935e-07 7.76826 -7.96788e-07 7.77162C-7.96641e-07 7.77499 -7.96494e-07 7.77835 -7.96347e-07 7.78171C-7.962e-07 7.78508 -7.96053e-07 7.78844 -7.95906e-07 7.7918C-7.95759e-07 7.79517 -7.95612e-07 7.79853 -7.95464e-07 7.80189C-7.95317e-07 7.80526 -7.9517e-07 7.80862 -7.95023e-07 7.81198C-7.94877e-07 7.81535 -7.9473e-07 7.81871 -7.94583e-07 7.82207C-7.94436e-07 7.82543 -7.94289e-07 7.8288 -7.94142e-07 7.83216C-7.93995e-07 7.83552 -7.93848e-07 7.83888 -7.93701e-07 7.84225C-7.93554e-07 7.84561 -7.93407e-07 7.84897 -7.9326e-07 7.85233C-7.93113e-07 7.8557 -7.92966e-07 7.85906 -7.92819e-07 7.86242C-7.92672e-07 7.86578 -7.92525e-07 7.86914 -7.92378e-07 7.87251C-7.92231e-07 7.87587 -7.92084e-07 7.87923 -7.91937e-07 7.88259C-7.9179e-07 7.88595 -7.91643e-07 7.88931 -7.91496e-07 7.89268C-7.91349e-07 7.89604 -7.91202e-07 7.8994 -7.91055e-07 7.90276C-7.90909e-07 7.90612 -7.90762e-07 7.90948 -7.90615e-07 7.91284C-7.90468e-07 7.9162 -7.90321e-07 7.91957 -7.90174e-07 7.92293C-7.90027e-07 7.92629 -7.8988e-07 7.92965 -7.89733e-07 7.93301C-7.89586e-07 7.93637 -7.89439e-07 7.93973 -7.89293e-07 7.94309C-7.89146e-07 7.94645 -7.88999e-07 7.94981 -7.88852e-07 7.95317C-7.88705e-07 7.95653 -7.88558e-07 7.95989 -7.88411e-07 7.96325C-7.88264e-07 7.96661 -7.88118e-07 7.96997 -7.87971e-07 7.97333C-7.87824e-07 7.97669 -7.87677e-07 7.98005 -7.8753e-07 7.98341C-7.87383e-07 7.98677 -7.87237e-07 7.99013 -7.8709e-07 7.99349C-7.86943e-07 7.99685 -7.86796e-07 8.0002 -7.86649e-07 8.00356C-7.86502e-07 8.00692 -7.86356e-07 8.01028 -7.86209e-07 8.01364C-7.86062e-07 8.017 -7.85915e-07 8.02036 -7.85768e-07 8.02371C-7.85622e-07 8.02707 -7.85475e-07 8.03043 -7.85328e-07 8.03379C-7.85181e-07 8.03715 -7.85034e-07 8.0405 -7.84888e-07 8.04386C-7.84741e-07 8.04722 -7.84594e-07 8.05058 -7.84447e-07 8.05393C-7.84301e-07 8.05729 -7.84154e-07 8.06065 -7.84007e-07 8.06401C-7.8386e-07 8.06736 -7.83714e-07 8.07072 -7.83567e-07 8.07408C-7.8342e-07 8.07743 -7.83274e-07 8.08079 -7.83127e-07 8.08415C-7.8298e-07 8.0875 -7.82833e-07 8.09086 -7.82687e-07 8.09421C-7.8254e-07 8.09757 -7.82393e-07 8.10093 -7.82247e-07 8.10428C-7.821e-07 8.10764 -7.81953e-07 8.11099 -7.81807e-07 8.11435C-7.8166e-07 8.1177 -7.81513e-07 8.12106 -7.81367e-07 8.12441C-7.8122e-07 8.12777 -7.81073e-07 8.13112 -7.80927e-07 8.13448C-7.8078e-07 8.13783 -7.80634e-07 8.14119 -7.80487e-07 8.14454C-7.8034e-07 8.1479 -7.80194e-07 8.15125 -7.80047e-07 8.1546C-7.799e-07 8.15796 -7.79754e-07 8.16131 -7.79607e-07 8.16466C-7.79461e-07 8.16802 -7.79314e-07 8.17137 -7.79168e-07 8.17472C-7.79021e-07 8.17808 -7.78874e-07 8.18143 -7.78728e-07 8.18478C-7.78581e-07 8.18813 -7.78435e-07 8.19149 -7.78288e-07 8.19484C-7.78142e-07 8.19819 -7.77995e-07 8.20154 -7.77849e-07 8.2049C-7.77702e-07 8.20825 -7.77556e-07 8.2116 -7.77409e-07 8.21495C-7.77263e-07 8.2183 -7.77116e-07 8.22165 -7.7697e-07 8.225C-7.76823e-07 8.22835 -7.76677e-07 8.23171 -7.7653e-07 8.23506C-7.76384e-07 8.23841 -7.76237e-07 8.24176 -7.76091e-07 8.24511C-7.75945e-07 8.24846 -7.75798e-07 8.25181 -7.75652e-07 8.25516C-7.75505e-07 8.25851 -7.75359e-07 8.26185 -7.75213e-07 8.2652C-7.75066e-07 8.26855 -7.7492e-07 8.2719 -7.74773e-07 8.27525C-7.74627e-07 8.2786 -7.74481e-07 8.28195 -7.74334e-07 8.2853C-7.74188e-07 8.28864 -7.74042e-07 8.29199 -7.73895e-07 8.29534C-7.73749e-07 8.29869 -7.73603e-07 8.30203 -7.73456e-07 8.30538C-7.7331e-07 8.30873 -7.73164e-07 8.31208 -7.73017e-07 8.31542C-7.72871e-07 8.31877 -7.72725e-07 8.32212 -7.72579e-07 8.32546C-7.72432e-07 8.32881 -7.72286e-07 8.33215 -7.7214e-07 8.3355C-7.71994e-07 8.33885 -7.71847e-07 8.34219 -7.71701e-07 8.34554C-7.71555e-07 8.34888 -7.71409e-07 8.35223 -7.71262e-07 8.35557C-7.71116e-07 8.35892 -7.7097e-07 8.36226 -7.70824e-07 8.3656C-7.70678e-07 8.36895 -7.70532e-07 8.37229 -7.70385e-07 8.37564C-7.70239e-07 8.37898 -7.70093e-07 8.38232 -7.69947e-07 8.38567C-7.69801e-07 8.38901 -7.69655e-07 8.39235 -7.69509e-07 8.39569C-7.69363e-07 8.39904 -7.69216e-07 8.40238 -7.6907e-07 8.40572C-7.68924e-07 8.40906 -7.68778e-07 8.4124 -7.68632e-07 8.41575C-7.68486e-07 8.41909 -7.6834e-07 8.42243 -7.68194e-07 8.42577C-7.68048e-07 8.42911 -7.67902e-07 8.43245 -7.67756e-07 8.43579C-7.6761e-07 8.43913 -7.67464e-07 8.44247 -7.67318e-07 8.44581C-7.67172e-07 8.44915 -7.67026e-07 8.45249 -7.6688e-07 8.45583C-7.66734e-07 8.45917 -7.66588e-07 8.46251 -7.66442e-07 8.46585C-7.66296e-07 8.46918 -7.6615e-07 8.47252 -7.66005e-07 8.47586C-7.65859e-07 8.4792 -7.65713e-07 8.48254 -7.65567e-07 8.48587C-7.65421e-07 8.48921 -7.65275e-07 8.49255 -7.65129e-07 8.49588C-7.64983e-07 8.49922 -7.64838e-07 8.50256 -7.64692e-07 8.50589C-7.64546e-07 8.50923 -7.644e-07 8.51256 -7.64254e-07 8.5159C-7.64109e-07 8.51923 -7.63963e-07 8.52257 -7.63817e-07 8.5259C-7.63671e-07 8.52924 -7.63525e-07 8.53257 -7.6338e-07 8.53591C-7.63234e-07 8.53924 -7.63088e-07 8.54257 -7.62943e-07 8.54591C-7.62797e-07 8.54924 -7.62651e-07 8.55257 -7.62505e-07 8.55591C-7.6236e-07 8.55924 -7.62214e-07 8.56257 -7.62069e-07 8.5659C-7.61923e-07 8.56924 -7.61777e-07 8.57257 -7.61632e-07 8.5759C-7.61486e-07 8.57923 -7.6134e-07 8.58256 -7.61195e-07 8.58589C-7.61049e-07 8.58922 -7.60904e-07 8.59255 -7.60758e-07 8.59588C-7.60613e-07 8.59921 -7.60467e-07 8.60254 -7.60321e-07 8.60587C-7.60176e-07 8.6092 -7.6003e-07 8.61253 -7.59885e-07 8.61586C-7.59739e-07 8.61919 -7.59594e-07 8.62252 -7.59448e-07 8.62584C-7.59303e-07 8.62917 -7.59158e-07 8.6325 -7.59012e-07 8.63583C-7.58867e-07 8.63915 -7.58721e-07 8.64248 -7.58576e-07 8.64581C-7.5843e-07 8.64913 -7.58285e-07 8.65246 -7.5814e-07 8.65579C-7.57994e-07 8.65911 -7.57849e-07 8.66244 -7.57704e-07 8.66576C-7.57558e-07 8.66909 -7.57413e-07 8.67241 -7.57268e-07 8.67574C-7.57122e-07 8.67906 -7.56977e-07 8.68238 -7.56832e-07 8.68571C-7.56686e-07 8.68903 -7.56541e-07 8.69235 -7.56396e-07 8.69568C-7.56251e-07 8.699 -7.56106e-07 8.70232 -7.5596e-07 8.70564C-7.55815e-07 8.70897 -7.5567e-07 8.71229 -7.55525e-07 8.71561C-7.5538e-07 8.71893 -7.55234e-07 8.72225 -7.55089e-07 8.72557C-7.54944e-07 8.72889 -7.54799e-07 8.73221 -7.54654e-07 8.73553C-7.54509e-07 8.73885 -7.54364e-07 8.74217 -7.54219e-07 8.74549C-7.54074e-07 8.74881 -7.53929e-07 8.75213 -7.53783e-07 8.75544C-7.53638e-07 8.75876 -7.53493e-07 8.76208 -7.53348e-07 8.7654C-7.53203e-07 8.76871 -7.53058e-07 8.77203 -7.52913e-07 8.77535C-7.52769e-07 8.77866 -7.52624e-07 8.78198 -7.52479e-07 8.78529C-7.52334e-07 8.78861 -7.52189e-07 8.79193 -7.52044e-07 8.79524C-7.51899e-07 8.79856 -7.51754e-07 8.80187 -7.51609e-07 8.80518C-7.51464e-07 8.8085 -7.5132e-07 8.81181 -7.51175e-07 8.81512C-7.5103e-07 8.81844 -7.50885e-07 8.82175 -7.5074e-07 8.82506C-7.50596e-07 8.82837 -7.50451e-07 8.83169 -7.50306e-07 8.835C-7.50161e-07 8.83831 -7.50017e-07 8.84162 -7.49872e-07 8.84493C-7.49727e-07 8.84824 -7.49583e-07 8.85155 -7.49438e-07 8.85486C-7.49293e-07 8.85817 -7.49149e-07 8.86148 -7.49004e-07 8.86479C-7.48859e-07 8.8681 -7.48715e-07 8.8714 -7.4857e-07 8.87471C-7.48426e-07 8.87802 -7.48281e-07 8.88133 -7.48136e-07 8.88463C-7.47992e-07 8.88794 -7.47847e-07 8.89125 -7.47703e-07 8.89455C-7.47558e-07 8.89786 -7.47414e-07 8.90117 -7.47269e-07 8.90447C-7.47125e-07 8.90778 -7.4698e-07 8.91108 -7.46836e-07 8.91438C-7.46692e-07 8.91769 -7.46547e-07 8.92099 -7.46403e-07 8.9243C-7.46258e-07 8.9276 -7.46114e-07 8.9309 -7.4597e-07 8.9342C-7.45825e-07 8.93751 -7.45681e-07 8.94081 -7.45537e-07 8.94411C-7.45392e-07 8.94741 -7.45248e-07 8.95071 -7.45104e-07 8.95401C-7.4496e-07 8.95731 -7.44815e-07 8.96061 -7.44671e-07 8.96391C-7.44527e-07 8.96721 -7.44383e-07 8.97051 -7.44238e-07 8.97381C-7.44094e-07 8.97711 -7.4395e-07 8.98041 -7.43806e-07 8.9837C-7.43662e-07 8.987 -7.43518e-07 8.9903 -7.43374e-07 8.9936C-7.43229e-07 8.99689 -7.43085e-07 9.00019 -7.42941e-07 9.00348C-7.42797e-07 9.00678 -7.42653e-07 9.01007 -7.42509e-07 9.01337C-7.42365e-07 9.01666 -7.42221e-07 9.01996 -7.42077e-07 9.02325C-7.41933e-07 9.02655 -7.41789e-07 9.02984 -7.41645e-07 9.03313C-7.41501e-07 9.03642 -7.41358e-07 9.03972 -7.41214e-07 9.04301C-7.4107e-07 9.0463 -7.40926e-07 9.04959 -7.40782e-07 9.05288C-7.40638e-07 9.05617 -7.40494e-07 9.05946 -7.40351e-07 9.06275C-7.40207e-07 9.06604 -7.40063e-07 9.06933 -7.39919e-07 9.07262C-7.39776e-07 9.07591 -7.39632e-07 9.0792 -7.39488e-07 9.08248C-7.39344e-07 9.08577 -7.39201e-07 9.08906 -7.39057e-07 9.09234C-7.38913e-07 9.09563 -7.3877e-07 9.09892 -7.38626e-07 9.1022C-7.38483e-07 9.10549 -7.38339e-07 9.10877 -7.38195e-07 9.11206C-7.38052e-07 9.11534 -7.37908e-07 9.11863 -7.37765e-07 9.12191C-7.37621e-07 9.12519 -7.37478e-07 9.12848 -7.37334e-07 9.13176C-7.37191e-07 9.13504 -7.37047e-07 9.13832 -7.36904e-07 9.1416C-7.36761e-07 9.14488 -7.36617e-07 9.14816 -7.36474e-07 9.15144C-7.3633e-07 9.15473 -7.36187e-07 9.158 -7.36044e-07 9.16128C-7.359e-07 9.16456 -7.35757e-07 9.16784 -7.35614e-07 9.17112C-7.3547e-07 9.1744 -7.35327e-07 9.17767 -7.35184e-07 9.18095C-7.35041e-07 9.18423 -7.34898e-07 9.1875 -7.34754e-07 9.19078C-7.34611e-07 9.19406 -7.34468e-07 9.19733 -7.34325e-07 9.20061C-7.34182e-07 9.20388 -7.34039e-07 9.20715 -7.33896e-07 9.21043C-7.33752e-07 9.2137 -7.33609e-07 9.21697 -7.33466e-07 9.22025C-7.33323e-07 9.22352 -7.3318e-07 9.22679 -7.33037e-07 9.23006C-7.32894e-07 9.23333 -7.32751e-07 9.2366 -7.32608e-07 9.23987C-7.32465e-07 9.24314 -7.32323e-07 9.24641 -7.3218e-07 9.24968C-7.32037e-07 9.25295 -7.31894e-07 9.25622 -7.31751e-07 9.25949C-7.31608e-07 9.26276 -7.31465e-07 9.26602 -7.31323e-07 9.26929C-7.3118e-07 9.27256 -7.31037e-07 9.27582 -7.30894e-07 9.27909C-7.30752e-07 9.28235 -7.30609e-07 9.28562 -7.30466e-07 9.28888C-7.30323e-07 9.29215 -7.30181e-07 9.29541 -7.30038e-07 9.29867C-7.29896e-07 9.30194 -7.29753e-07 9.3052 -7.2961e-07 9.30846C-7.29468e-07 9.31172 -7.29325e-07 9.31498 -7.29183e-07 9.31824C-7.2904e-07 9.3215 -7.28898e-07 9.32476 -7.28755e-07 9.32802C-7.28613e-07 9.33128 -7.2847e-07 9.33454 -7.28328e-07 9.3378C-7.28185e-07 9.34106 -7.28043e-07 9.34432 -7.27901e-07 9.34757C-7.27758e-07 9.35083 -7.27616e-07 9.35409 -7.27474e-07 9.35734C-7.27331e-07 9.3606 -7.27189e-07 9.36385 -7.27047e-07 9.36711C-7.26905e-07 9.37036 -7.26762e-07 9.37362 -7.2662e-07 9.37687C-7.26478e-07 9.38012 -7.26336e-07 9.38338 -7.26194e-07 9.38663C-7.26051e-07 9.38988 -7.25909e-07 9.39313 -7.25767e-07 9.39638C-7.25625e-07 9.39963 -7.25483e-07 9.40288 -7.25341e-07 9.40613C-7.25199e-07 9.40938 -7.25057e-07 9.41263 -7.24915e-07 9.41588C-7.24773e-07 9.41913 -7.24631e-07 9.42238 -7.24489e-07 9.42562C-7.24347e-07 9.42887 -7.24205e-07 9.43212 -7.24063e-07 9.43536C-7.23921e-07 9.43861 -7.2378e-07 9.44185 -7.23638e-07 9.4451C-7.23496e-07 9.44834 -7.23354e-07 9.45158 -7.23212e-07 9.45483C-7.23071e-07 9.45807 -7.22929e-07 9.46131 -7.22787e-07 9.46455C-7.22646e-07 9.4678 -7.22504e-07 9.47104 -7.22362e-07 9.47428C-7.22221e-07 9.47752 -7.22079e-07 9.48076 -7.21937e-07 9.484C-7.21796e-07 9.48724 -7.21654e-07 9.49048 -7.21513e-07 9.49371C-7.21371e-07 9.49695 -7.2123e-07 9.50019 -7.21088e-07 9.50342C-7.20947e-07 9.50666 -7.20805e-07 9.5099 -7.20664e-07 9.51313C-7.20522e-07 9.51637 -7.20381e-07 9.5196 -7.2024e-07 9.52284C-7.20098e-07 9.52607 -7.19957e-07 9.5293 -7.19816e-07 9.53254C-7.19674e-07 9.53577 -7.19533e-07 9.539 -7.19392e-07 9.54223C-7.19251e-07 9.54546 -7.1911e-07 9.54869 -7.18968e-07 9.55192C-7.18827e-07 9.55515 -7.18686e-07 9.55838 -7.18545e-07 9.56161C-7.18404e-07 9.56484 -7.18263e-07 9.56806 -7.18122e-07 9.57129C-7.17981e-07 9.57452 -7.1784e-07 9.57774 -7.17699e-07 9.58097C-7.17558e-07 9.5842 -7.17417e-07 9.58742 -7.17276e-07 9.59064C-7.17135e-07 9.59387 -7.16994e-07 9.59709 -7.16853e-07 9.60032C-7.16712e-07 9.60354 -7.16571e-07 9.60676 -7.1643e-07 9.60998C-7.1629e-07 9.6132 -7.16149e-07 9.61642 -7.16008e-07 9.61964C-7.15867e-07 9.62286 -7.15727e-07 9.62608 -7.15586e-07 9.6293C-7.15445e-07 9.63252 -7.15305e-07 9.63574 -7.15164e-07 9.63895C-7.15023e-07 9.64217 -7.14883e-07 9.64539 -7.14742e-07 9.6486C-7.14602e-07 9.65182 -7.14461e-07 9.65503 -7.14321e-07 9.65825C-7.1418e-07 9.66146 -7.1404e-07 9.66468 -7.13899e-07 9.66789C-7.13759e-07 9.6711 -7.13618e-07 9.67431 -7.13478e-07 9.67752C-7.13338e-07 9.68074 -7.13197e-07 9.68395 -7.13057e-07 9.68716C-7.12917e-07 9.69037 -7.12776e-07 9.69357 -7.12636e-07 9.69678C-7.12496e-07 9.69999 -7.12356e-07 9.7032 -7.12216e-07 9.70641C-7.12075e-07 9.70961 -7.11935e-07 9.71282 -7.11795e-07 9.71602C-7.11655e-07 9.71923 -7.11515e-07 9.72243 -7.11375e-07 9.72564C-7.11235e-07 9.72884 -7.11095e-07 9.73204 -7.10955e-07 9.73525C-7.10815e-07 9.73845 -7.10675e-07 9.74165 -7.10535e-07 9.74485C-7.10395e-07 9.74805 -7.10255e-07 9.75125 -7.10115e-07 9.75445C-7.09976e-07 9.75765 -7.09836e-07 9.76085 -7.09696e-07 9.76405C-7.09556e-07 9.76725 -7.09416e-07 9.77044 -7.09277e-07 9.77364C-7.09137e-07 9.77684 -7.08997e-07 9.78003 -7.08858e-07 9.78323C-7.08718e-07 9.78642 -7.08578e-07 9.78961 -7.08439e-07 9.79281C-7.08299e-07 9.796 -7.0816e-07 9.79919 -7.0802e-07 9.80238C-7.07881e-07 9.80558 -7.07741e-07 9.80877 -7.07602e-07 9.81196C-7.07462e-07 9.81515 -7.07323e-07 9.81834 -7.07184e-07 9.82153C-7.07044e-07 9.82471 -7.06905e-07 9.8279 -7.06766e-07 9.83109C-7.06626e-07 9.83428 -7.06487e-07 9.83746 -7.06348e-07 9.84065C-7.06209e-07 9.84383 -7.06069e-07 9.84702 -7.0593e-07 9.8502C-7.05791e-07 9.85338 -7.05652e-07 9.85657 -7.05513e-07 9.85975C-7.05374e-07 9.86293 -7.05235e-07 9.86611 -7.05096e-07 9.86929C-7.04957e-07 9.87247 -7.04818e-07 9.87565 -7.04679e-07 9.87883C-7.0454e-07 9.88201 -7.04401e-07 9.88519 -7.04262e-07 9.88837C-7.04123e-07 9.89154 -7.03984e-07 9.89472 -7.03845e-07 9.8979C-7.03706e-07 9.90107 -7.03568e-07 9.90425 -7.03429e-07 9.90742C-7.0329e-07 9.9106 -7.03151e-07 9.91377 -7.03013e-07 9.91694C-7.02874e-07 9.92011 -7.02736e-07 9.92329 -7.02597e-07 9.92646C-7.02458e-07 9.92963 -7.0232e-07 9.9328 -7.02181e-07 9.93597C-7.02043e-07 9.93914 -7.01904e-07 9.9423 -7.01766e-07 9.94547C-7.01627e-07 9.94864 -7.01489e-07 9.95181 -7.0135e-07 9.95497C-7.01212e-07 9.95814 -7.01074e-07 9.9613 -7.00935e-07 9.96447C-7.00797e-07 9.96763 -7.00659e-07 9.97079 -7.00521e-07 9.97396C-7.00382e-07 9.97712 -7.00244e-07 9.98028 -7.00106e-07 9.98344C-6.99968e-07 9.9866 -6.9983e-07 9.98976 -6.99692e-07 9.99292C-6.99554e-07 9.99608 -6.99415e-07 9.99924 -6.99277e-07 10.0024C-6.99139e-07 10.0056 -6.99001e-07 10.0087 -6.98864e-07 10.0119C-6.98726e-07 10.015 -6.98588e-07 10.0182 -6.9845e-07 10.0213C-6.98312e-07 10.0245 -6.98174e-07 10.0276 -6.98036e-07 10.0308C-6.97899e-07 10.0339 -6.97761e-07 10.0371 -6.97623e-07 10.0402C-6.97485e-07 10.0434 -6.97348e-07 10.0465 -6.9721e-07 10.0497C-6.97072e-07 10.0528 -6.96935e-07 10.056 -6.96797e-07 10.0591C-6.9666e-07 10.0623 -6.96522e-07 10.0654 -6.96385e-07 10.0686C-6.96247e-07 10.0717 -6.9611e-07 10.0749 -6.95972e-07 10.078C-6.95835e-07 10.0812 -6.95698e-07 10.0843 -6.9556e-07 10.0874C-6.95423e-07 10.0906 -6.95286e-07 10.0937 -6.95148e-07 10.0969C-6.95011e-07 10.1 -6.94874e-07 10.1031 -6.94737e-07 10.1063C-6.946e-07 10.1094 -6.94462e-07 10.1126 -6.94325e-07 10.1157C-6.94188e-07 10.1188 -6.94051e-07 10.122 -6.93914e-07 10.1251C-6.93777e-07 10.1282 -6.9364e-07 10.1314 -6.93503e-07 10.1345C-6.93366e-07 10.1376 -6.93229e-07 10.1408 -6.93092e-07 10.1439C-6.92956e-07 10.147 -6.92819e-07 10.1502 -6.92682e-07 10.1533C-6.92545e-07 10.1564 -6.92408e-07 10.1595 -6.92272e-07 10.1627C-6.92135e-07 10.1658 -6.91998e-07 10.1689 -6.91862e-07 10.172C-6.91725e-07 10.1752 -6.91588e-07 10.1783 -6.91452e-07 10.1814C-6.91315e-07 10.1845 -6.91179e-07 10.1877 -6.91042e-07 10.1908C-6.90906e-07 10.1939 -6.9077e-07 10.197 -6.90633e-07 10.2002C-6.90497e-07 10.2033 -6.9036e-07 10.2064 -6.90224e-07 10.2095C-6.90088e-07 10.2126 -6.89952e-07 10.2157 -6.89815e-07 10.2189C-6.89679e-07 10.222 -6.89543e-07 10.2251 -6.89407e-07 10.2282C-6.89271e-07 10.2313 -6.89135e-07 10.2344 -6.88998e-07 10.2376C-6.88862e-07 10.2407 -6.88726e-07 10.2438 -6.8859e-07 10.2469C-6.88454e-07 10.25 -6.88319e-07 10.2531 -6.88183e-07 10.2562C-6.88047e-07 10.2593 -6.87911e-07 10.2624 -6.87775e-07 10.2655C-6.87639e-07 10.2686 -6.87503e-07 10.2718 -6.87368e-07 10.2749C-6.87232e-07 10.278 -6.87096e-07 10.2811 -6.86961e-07 10.2842C-6.86825e-07 10.2873 -6.86689e-07 10.2904 -6.86554e-07 10.2935C-6.86418e-07 10.2966 -6.86283e-07 10.2997 -6.86147e-07 10.3028C-6.86012e-07 10.3059 -6.85876e-07 10.309 -6.85741e-07 10.3121C-6.85606e-07 10.3152 -6.8547e-07 10.3183 -6.85335e-07 10.3214C-6.852e-07 10.3245 -6.85064e-07 10.3276 -6.84929e-07 10.3306C-6.84794e-07 10.3337 -6.84659e-07 10.3368 -6.84524e-07 10.3399C-6.84388e-07 10.343 -6.84253e-07 10.3461 -6.84118e-07 10.3492C-6.83983e-07 10.3523 -6.83848e-07 10.3554 -6.83713e-07 10.3585C-6.83578e-07 10.3616 -6.83443e-07 10.3646 -6.83309e-07 10.3677C-6.83174e-07 10.3708 -6.83039e-07 10.3739 -6.82904e-07 10.377C-6.82769e-07 10.3801 -6.82634e-07 10.3831 -6.825e-07 10.3862C-6.82365e-07 10.3893 -6.8223e-07 10.3924 -6.82096e-07 10.3955C-6.81961e-07 10.3985 -6.81827e-07 10.4016 -6.81692e-07 10.4047C-6.81558e-07 10.4078 -6.81423e-07 10.4109 -6.81289e-07 10.4139C-6.81154e-07 10.417 -6.8102e-07 10.4201 -6.80885e-07 10.4232C-6.80751e-07 10.4262 -6.80617e-07 10.4293 -6.80482e-07 10.4324C-6.80348e-07 10.4354 -6.80214e-07 10.4385 -6.8008e-07 10.4416C-6.79946e-07 10.4447 -6.79811e-07 10.4477 -6.79677e-07 10.4508C-6.79543e-07 10.4539 -6.79409e-07 10.4569 -6.79275e-07 10.46C-6.79141e-07 10.4631 -6.79007e-07 10.4661 -6.78873e-07 10.4692C-6.78739e-07 10.4723 -6.78606e-07 10.4753 -6.78472e-07 10.4784C-6.78338e-07 10.4814 -6.78204e-07 10.4845 -6.7807e-07 10.4876C-6.77937e-07 10.4906 -6.77803e-07 10.4937 -6.77669e-07 10.4967C-6.77536e-07 10.4998 -6.77402e-07 10.5028 -6.77269e-07 10.5059C-6.77135e-07 10.509 -6.77002e-07 10.512 -6.76868e-07 10.5151C-6.76735e-07 10.5181 -6.76601e-07 10.5212 -6.76468e-07 10.5242C-6.76334e-07 10.5273 -6.76201e-07 10.5303 -6.76068e-07 10.5334C-6.75935e-07 10.5364 -6.75801e-07 10.5395 -6.75668e-07 10.5425C-6.75535e-07 10.5456 -6.75402e-07 10.5486 -6.75269e-07 10.5517C-6.75136e-07 10.5547 -6.75003e-07 10.5577 -6.7487e-07 10.5608C-6.74737e-07 10.5638 -6.74604e-07 10.5669 -6.74471e-07 10.5699C-6.74338e-07 10.5729 -6.74205e-07 10.576 -6.74072e-07 10.579C-6.73939e-07 10.5821 -6.73807e-07 10.5851 -6.73674e-07 10.5881C-6.73541e-07 10.5912 -6.73408e-07 10.5942 -6.73276e-07 10.5972C-6.73143e-07 10.6003 -6.73011e-07 10.6033 -6.72878e-07 10.6063C-6.72746e-07 10.6094 -6.72613e-07 10.6124 -6.72481e-07 10.6154C-6.72348e-07 10.6185 -6.72216e-07 10.6215 -6.72083e-07 10.6245C-6.71951e-07 10.6275 -6.71819e-07 10.6306 -6.71687e-07 10.6336C-6.71554e-07 10.6366 -6.71422e-07 10.6397 -6.7129e-07 10.6427C-6.71158e-07 10.6457 -6.71026e-07 10.6487 -6.70894e-07 10.6517C-6.70762e-07 10.6548 -6.7063e-07 10.6578 -6.70498e-07 10.6608C-6.70366e-07 10.6638 -6.70234e-07 10.6668 -6.70102e-07 10.6699C-6.6997e-07 10.6729 -6.69838e-07 10.6759 -6.69706e-07 10.6789C-6.69575e-07 10.6819 -6.69443e-07 10.6849 -6.69311e-07 10.6879C-6.6918e-07 10.691 -6.69048e-07 10.694 -6.68916e-07 10.697C-6.68785e-07 10.7 -6.68653e-07 10.703 -6.68522e-07 10.706C-6.6839e-07 10.709 -6.68259e-07 10.712 -6.68128e-07 10.715C-6.67996e-07 10.718 -6.67865e-07 10.721 -6.67734e-07 10.724C-6.67602e-07 10.727 -6.67471e-07 10.73 -6.6734e-07 10.733C-6.67209e-07 10.736 -6.67078e-07 10.739 -6.66947e-07 10.742C-6.66815e-07 10.745 -6.66684e-07 10.748 -6.66553e-07 10.751C-6.66422e-07 10.754 -6.66292e-07 10.757 -6.66161e-07 10.76C-6.6603e-07 10.763 -6.65899e-07 10.766 -6.65768e-07 10.769C-6.65637e-07 10.772 -6.65507e-07 10.775 -6.65376e-07 10.778C-6.65245e-07 10.781 -6.65115e-07 10.784 -6.64984e-07 10.7869C-6.64853e-07 10.7899 -6.64723e-07 10.7929 -6.64592e-07 10.7959C-6.64462e-07 10.7989 -6.64332e-07 10.8019 -6.64201e-07 10.8048C-6.64071e-07 10.8078 -6.6394e-07 10.8108 -6.6381e-07 10.8138C-6.6368e-07 10.8168 -6.6355e-07 10.8198 -6.63419e-07 10.8227C-6.63289e-07 10.8257 -6.63159e-07 10.8287 -6.63029e-07 10.8317C-6.62899e-07 10.8346 -6.62769e-07 10.8376 -6.62639e-07 10.8406C-6.62509e-07 10.8436 -6.62379e-07 10.8465 -6.62249e-07 10.8495C-6.62119e-07 10.8525 -6.61989e-07 10.8554 -6.6186e-07 10.8584C-6.6173e-07 10.8614 -6.616e-07 10.8644 -6.61471e-07 10.8673C-6.61341e-07 10.8703 -6.61211e-07 10.8732 -6.61082e-07 10.8762C-6.60952e-07 10.8792 -6.60823e-07 10.8821 -6.60693e-07 10.8851C-6.60564e-07 10.8881 -6.60434e-07 10.891 -6.60305e-07 10.894C-6.60176e-07 10.8969 -6.60046e-07 10.8999 -6.59917e-07 10.9029C-6.59788e-07 10.9058 -6.59659e-07 10.9088 -6.59529e-07 10.9117C-6.594e-07 10.9147 -6.59271e-07 10.9176 -6.59142e-07 10.9206C-6.59013e-07 10.9235 -6.58884e-07 10.9265 -6.58755e-07 10.9294C-6.58626e-07 10.9324 -6.58497e-07 10.9353 -6.58369e-07 10.9383C-6.5824e-07 10.9412 -6.58111e-07 10.9442 -6.57982e-07 10.9471C-6.57853e-07 10.9501 -6.57725e-07 10.953 -6.57596e-07 10.956C-6.57468e-07 10.9589 -6.57339e-07 10.9618 -6.5721e-07 10.9648C-6.57082e-07 10.9677 -6.56953e-07 10.9707 -6.56825e-07 10.9736C-6.56697e-07 10.9765 -6.56568e-07 10.9795 -6.5644e-07 10.9824C-6.56312e-07 10.9853 -6.56183e-07 10.9883 -6.56055e-07 10.9912C-6.55927e-07 10.9941 -6.55799e-07 10.9971 -6.55671e-07 11L2 11ZM2 21L2 16L-4.37114e-07 16L-2.18557e-07 21L2 21ZM25 21C25 23.2091 23.2091 25 21 25L21 27C24.3137 27 27 24.3137 27 21L25 21ZM21 2C23.2091 2 25 3.79086 25 6L27 6C27 2.68629 24.3137 -1.01907e-06 21 -8.74228e-07L21 2ZM6 -2.18557e-07C2.68645 -7.37173e-08 -1.01911e-06 2.6855 -8.74255e-07 5.99937L2 5.99937C2 3.7904 3.7907 2 6 2L6 -2.18557e-07ZM6 25C3.79086 25 2 23.2091 2 21L-2.18557e-07 21C-7.37101e-08 24.3137 2.68629 27 6 27L6 25Z" fill="white"/>
<path d="M1.04376 19.5613C0.594349 19.8823 0.490258 20.5068 0.811267 20.9562C1.13228 21.4057 1.75683 21.5097 2.20624 21.1887L1.04376 19.5613ZM19.1402 11.4818C18.7159 11.1282 18.0853 11.1855 17.7318 11.6098C17.3782 12.0341 17.4355 12.6647 17.8598 13.0182L19.1402 11.4818ZM25.3598 19.2682C25.7841 19.6218 26.4147 19.5645 26.7682 19.1402C27.1218 18.7159 27.0645 18.0853 26.6402 17.7318L25.3598 19.2682ZM14.8321 17.3321C15.2226 16.9416 15.2226 16.3084 14.8321 15.9179C14.4416 15.5274 13.8084 15.5274 13.4179 15.9179L14.8321 17.3321ZM2.20624 21.1887L5.34043 18.95L4.17796 17.3226L1.04376 19.5613L2.20624 21.1887ZM6.37111 19.0353L8.19436 20.8586L9.60858 19.4444L7.78532 17.6211L6.37111 19.0353ZM17.8598 13.0182L25.3598 19.2682L26.6402 17.7318L19.1402 11.4818L17.8598 13.0182ZM11.3056 20.8586L14.8321 17.3321L13.4179 15.9179L9.89142 19.4444L11.3056 20.8586ZM8.19436 20.8586C9.05352 21.7177 10.4465 21.7177 11.3056 20.8586L9.89142 19.4444C9.81332 19.5225 9.68668 19.5225 9.60858 19.4444L8.19436 20.8586ZM5.34043 18.95C5.65866 18.7227 6.09458 18.7588 6.37111 19.0353L7.78532 17.6211C6.81747 16.6533 5.29175 16.527 4.17796 17.3226L5.34043 18.95Z" fill="white"/>
<circle r="2.5" transform="matrix(-1 0 0 1 8.5 8.5)" stroke="white" stroke-width="2"/>
</svg>
