<svg width="25" height="25" viewBox="0 0 25 25" fill="none" xmlns="http://www.w3.org/2000/svg">
<path d="M11.4718 1.70847C11.9382 0.933481 13.0618 0.933482 13.5282 1.70847L16.3524 6.40129C16.5199 6.67971 16.7932 6.87827 17.1098 6.95159L22.4456 8.18738C23.3268 8.39147 23.674 9.46003 23.0811 10.1431L19.4907 14.2792C19.2776 14.5246 19.1733 14.8459 19.2014 15.1696L19.6749 20.6262C19.7531 21.5273 18.8441 22.1877 18.0113 21.8349L12.9681 19.6983C12.6689 19.5716 12.3311 19.5716 12.0319 19.6983L6.9887 21.8349C6.15586 22.1877 5.24688 21.5273 5.32509 20.6262L5.79865 15.1696C5.82674 14.8459 5.72235 14.5246 5.50934 14.2792L1.91892 10.1431C1.32599 9.46003 1.67319 8.39147 2.55436 8.18738L7.89023 6.95159C8.20679 6.87827 8.48009 6.67971 8.64764 6.40129L11.4718 1.70847Z" fill="white"/>
</svg>
